<?xml version="1.0" standalone="no"?>
<!DOCTYPE svg PUBLIC "-//W3C//DTD SVG 20010904//EN"
 "http://www.w3.org/TR/2001/REC-SVG-20010904/DTD/svg10.dtd">
<svg version="1.0" xmlns="http://www.w3.org/2000/svg"
 width="260.000000pt" height="260.000000pt" viewBox="0 0 260.000000 260.000000"
 preserveAspectRatio="xMidYMid meet">
<metadata>
Created by potrace 1.14, written by Peter Selinger 2001-2017
</metadata>
<g transform="translate(0.000000,260.000000) scale(0.100000,-0.100000)"
fill="#000000" stroke="none">
<path d="M940 1923 l0 -133 144 0 c106 0 145 3 148 13 3 10 2 182 -1 239 -1
16 -16 17 -146 16 l-145 -2 0 -133z"/>
<path d="M1366 1932 c1 -70 2 -130 3 -134 1 -5 66 -8 146 -8 l145 0 -1 134 0
134 -147 0 -147 0 1 -126z"/>
<path d="M1125 1683 c-260 -55 -400 -243 -394 -526 2 -111 13 -166 49 -242 63
-133 177 -215 355 -256 127 -28 370 -15 484 28 142 52 238 169 244 294 l2 53
-182 0 -182 1 -6 -35 c-13 -72 -73 -110 -178 -112 -124 -2 -185 51 -202 174
l-6 44 378 0 378 0 3 69 c4 86 -21 212 -55 278 -52 104 -162 186 -298 223 -84
23 -299 27 -390 7z m282 -248 c38 -19 60 -51 72 -104 8 -35 6 -41 -8 -42 -20
0 -320 0 -343 0 -13 1 -15 6 -8 30 21 74 56 110 129 131 38 11 122 3 158 -15z"/>
</g>
</svg>
